<?xml version='1.0' encoding='utf-8'?>
<svg xmlns="http://www.w3.org/2000/svg" version="1.1" id="svg1" width="865.9809999999999" height="311.991" viewBox="0 0 865.9809999999999 311.991"><defs id="defs1">
    <clipPath clipPathUnits="userSpaceOnUse" id="clipPath4">
      <path d="M 0,1224 H 1224 V 0 H 0 Z" transform="translate(-636.86072,-489.38411)" id="path4" />
    </clipPath>
    <clipPath clipPathUnits="userSpaceOnUse" id="clipPath6">
      <path d="M 0,1224 H 1224 V 0 H 0 Z" transform="translate(-663.67541,-516.68201)" id="path6" />
    </clipPath>
    <clipPath clipPathUnits="userSpaceOnUse" id="clipPath8">
      <path d="M 0,1224 H 1224 V 0 H 0 Z" transform="translate(-715.63452,-488.41171)" id="path8" />
    </clipPath>
    <clipPath clipPathUnits="userSpaceOnUse" id="clipPath10">
      <path d="M 0,1224 H 1224 V 0 H 0 Z" transform="translate(-729.89792,-489.46171)" id="path10" />
    </clipPath>
    <clipPath clipPathUnits="userSpaceOnUse" id="clipPath12">
      <path d="M 0,1224 H 1224 V 0 H 0 Z" transform="translate(-783.46162,-500.25322)" id="path12" />
    </clipPath>
    <clipPath clipPathUnits="userSpaceOnUse" id="clipPath14">
      <path d="M 0,1224 H 1224 V 0 H 0 Z" transform="translate(-796.69302,-488.41171)" id="path14" />
    </clipPath>
    <clipPath clipPathUnits="userSpaceOnUse" id="clipPath16">
      <path d="M 0,1224 H 1224 V 0 H 0 Z" transform="translate(-828.8527,-516.16901)" id="path16" />
    </clipPath>
    <clipPath clipPathUnits="userSpaceOnUse" id="clipPath18">
      <path d="M 0,1224 H 1224 V 0 H 0 Z" transform="translate(-863.01685,-516.68201)" id="path18" />
    </clipPath>
    <clipPath clipPathUnits="userSpaceOnUse" id="clipPath20">
      <path d="M 0,1224 H 1224 V 0 H 0 Z" transform="translate(-893.14832,-516.16901)" id="path20" />
    </clipPath>
    <clipPath clipPathUnits="userSpaceOnUse" id="clipPath22">
      <path d="M 0,1224 H 1224 V 0 H 0 Z" transform="translate(-934.59032,-513.21011)" id="path22" />
    </clipPath>
    <clipPath clipPathUnits="userSpaceOnUse" id="clipPath24">
      <path d="M 0,1224 H 1224 V 0 H 0 Z" transform="translate(-509.92871,-706.88602)" id="path24" />
    </clipPath>
    <clipPath clipPathUnits="userSpaceOnUse" id="clipPath26">
      <path d="M 0,1224 H 1224 V 0 H 0 Z" transform="translate(-579.63622,-669.25102)" id="path26" />
    </clipPath>
    <clipPath clipPathUnits="userSpaceOnUse" id="clipPath28">
      <path d="M 0,1224 H 1224 V 0 H 0 Z" transform="translate(-618.67162,-669.25102)" id="path28" />
    </clipPath>
    <clipPath clipPathUnits="userSpaceOnUse" id="clipPath30">
      <path d="M 0,1224 H 1224 V 0 H 0 Z" transform="translate(-748.66822,-665.06932)" id="path30" />
    </clipPath>
    <clipPath clipPathUnits="userSpaceOnUse" id="clipPath32">
      <path d="M 0,1224 H 1224 V 0 H 0 Z" transform="translate(-912.82795,-590.32031)" id="path32" />
    </clipPath>
    <clipPath clipPathUnits="userSpaceOnUse" id="clipPath34">
      <path d="M 0,1224 H 1224 V 0 H 0 Z" transform="translate(-984.97802,-669.25102)" id="path34" />
    </clipPath>
    <clipPath clipPathUnits="userSpaceOnUse" id="clipPath36">
      <path d="M 0,1224 H 1224 V 0 H 0 Z" transform="translate(-1049.9763,-590.32031)" id="path36" />
    </clipPath>
    <linearGradient x1="0" y1="0" x2="1" y2="0" gradientUnits="userSpaceOnUse" gradientTransform="matrix(83.258461,-499.55078,-499.55078,-83.258461,194.11354,908.8869)" spreadMethod="pad" id="linearGradient43">
      <stop style="stop-opacity:1;stop-color:#f1db54" offset="0" id="stop36" />
      <stop style="stop-opacity:1;stop-color:#f1db54" offset="0.196335" id="stop37" />
      <stop style="stop-opacity:1;stop-color:#ef813a" offset="0.33996377" id="stop38" />
      <stop style="stop-opacity:1;stop-color:#ef813a" offset="0.366492" id="stop39" />
      <stop style="stop-opacity:1;stop-color:#fa85fd" offset="0.54712" id="stop40" />
      <stop style="stop-opacity:1;stop-color:#9c82ee" offset="0.71466" id="stop41" />
      <stop style="stop-opacity:1;stop-color:#42abdf" offset="0.84555" id="stop42" />
      <stop style="stop-opacity:1;stop-color:#aafab5" offset="1" id="stop43" />
    </linearGradient>
    <linearGradient x1="0" y1="0" x2="1" y2="0" gradientUnits="userSpaceOnUse" gradientTransform="matrix(83.258461,-499.55078,-499.55078,-83.258461,180.42183,906.60492)" spreadMethod="pad" id="linearGradient51">
      <stop style="stop-opacity:1;stop-color:#f1db54" offset="0" id="stop44" />
      <stop style="stop-opacity:1;stop-color:#f1db54" offset="0.196335" id="stop45" />
      <stop style="stop-opacity:1;stop-color:#ef813a" offset="0.33996377" id="stop46" />
      <stop style="stop-opacity:1;stop-color:#ef813a" offset="0.366492" id="stop47" />
      <stop style="stop-opacity:1;stop-color:#fa85fd" offset="0.54712" id="stop48" />
      <stop style="stop-opacity:1;stop-color:#9c82ee" offset="0.71466" id="stop49" />
      <stop style="stop-opacity:1;stop-color:#42abdf" offset="0.84555" id="stop50" />
      <stop style="stop-opacity:1;stop-color:#aafab5" offset="1" id="stop51" />
    </linearGradient>
  </defs>
  <g id="layer1"><path id="path3" d="m 0,0 c -2.768,-0.996 -5.658,-1.491 -8.665,-1.491 -4.677,0 -8.495,1.36 -11.442,4.08 -2.952,2.726 -4.426,6.276 -4.426,10.654 0,4.808 1.599,8.668 4.796,11.567 3.198,2.9 7.26,4.349 12.194,4.349 2.624,0 5.139,-0.364 7.543,-1.092 v -2.171 c -2.404,0.937 -4.936,1.402 -7.591,1.402 -4.295,0 -7.791,-1.259 -10.475,-3.782 -2.691,-2.518 -4.033,-5.876 -4.033,-10.064 0,-4.039 1.283,-7.224 3.854,-9.557 2.565,-2.338 5.822,-3.507 9.771,-3.507 3.15,0 5.974,0.531 8.474,1.593 z" style="fill:#2e2e2e;fill-opacity:1;fill-rule:nonzero;stroke:none" transform="translate(-510.01599999999996,-583.485) matrix(1.3333333,0,0,-1.3333333,753.1476,883.48787)" clip-path="url(#clipPath4)" />
    <path id="path5" d="m 0,0 c -3.979,0 -7.254,-1.247 -9.819,-3.74 -2.571,-2.494 -3.854,-5.757 -3.854,-9.796 0,-4.08 1.217,-7.325 3.651,-9.747 2.434,-2.416 5.679,-3.627 9.736,-3.627 4.229,0 7.576,1.199 10.045,3.591 2.464,2.386 3.699,5.721 3.699,9.992 0,4.188 -1.205,7.457 -3.615,9.807 C 7.433,-1.175 4.152,0 0,0 m -0.239,-28.789 c -4.838,0 -8.691,1.39 -11.561,4.176 -2.869,2.785 -4.307,6.401 -4.307,10.851 0,4.724 1.474,8.512 4.427,11.358 2.947,2.845 6.979,4.265 12.086,4.265 4.611,0 8.345,-1.366 11.203,-4.104 2.851,-2.732 4.283,-6.317 4.283,-10.756 0,-4.903 -1.468,-8.763 -4.391,-11.573 -2.929,-2.809 -6.842,-4.217 -11.74,-4.217" style="fill:#2e2e2e;fill-opacity:1;fill-rule:nonzero;stroke:none" transform="translate(-510.01599999999996,-583.485) matrix(1.3333333,0,0,-1.3333333,788.90053,847.09067)" clip-path="url(#clipPath6)" />
    <path id="path7" d="m 0,0 -20.378,23.951 c -0.412,0.484 -0.781,0.967 -1.098,1.45 l -0.31,0.411 h -0.095 c 0.03,-0.357 0.047,-0.793 0.047,-1.3 V 0 h -2.362 v 29.636 h 1.814 L -2.148,5.888 c 0.442,-0.525 0.931,-1.157 1.456,-1.903 h 0.119 C -0.656,4.951 -0.692,5.781 -0.692,6.467 V 29.636 H 1.67 L 1.67,0 Z" style="fill:#2e2e2e;fill-opacity:1;fill-rule:nonzero;stroke:none" transform="translate(-510.01599999999996,-583.485) matrix(1.3333333,0,0,-1.3333333,858.17933,884.7844)" clip-path="url(#clipPath8)" />
    <path id="path9" d="M 0,0 V 2.338 C 2.452,0.99 4.933,0.31 7.445,0.31 c 2.672,0 4.701,0.483 6.085,1.438 1.384,0.96 2.076,2.297 2.076,4.021 0,1.515 -0.466,2.726 -1.396,3.627 -0.931,0.9 -2.947,2.135 -6.049,3.692 -3.466,1.748 -5.661,3.21 -6.586,4.391 -0.925,1.175 -1.384,2.535 -1.384,4.08 0,2.094 0.936,3.872 2.816,5.333 1.879,1.462 4.378,2.19 7.516,2.19 2.034,0 4.068,-0.299 6.109,-0.889 v -2.148 c -2.005,0.788 -4.146,1.175 -6.419,1.175 -2.327,0 -4.164,-0.507 -5.524,-1.527 -1.36,-1.02 -2.04,-2.314 -2.04,-3.883 0,-1.516 0.465,-2.727 1.396,-3.621 0.93,-0.895 2.935,-2.112 6.025,-3.657 3.197,-1.569 5.321,-2.965 6.383,-4.188 1.056,-1.217 1.586,-2.619 1.586,-4.206 0,-2.272 -0.912,-4.122 -2.732,-5.559 -1.825,-1.432 -4.396,-2.148 -7.719,-2.148 -1.181,0 -2.535,0.161 -4.068,0.477 C 1.986,-0.776 0.811,-0.412 0,0" style="fill:#2e2e2e;fill-opacity:1;fill-rule:nonzero;stroke:none" transform="translate(-510.01599999999996,-583.485) matrix(1.3333333,0,0,-1.3333333,877.1972,883.3844)" clip-path="url(#clipPath10)" />
    <path id="path11" d="m 0,0 c 0,-8.238 -4.057,-12.36 -12.169,-12.36 -7.714,0 -11.573,3.967 -11.573,11.907 v 18.248 h 2.338 V -0.167 c 0,-6.872 3.227,-10.314 9.688,-10.314 6.252,0 9.378,3.34 9.378,10.028 V 17.795 H 0 Z" style="fill:#2e2e2e;fill-opacity:1;fill-rule:nonzero;stroke:none" transform="translate(-510.01599999999996,-583.485) matrix(1.3333333,0,0,-1.3333333,948.61547,868.99573)" clip-path="url(#clipPath12)" />
    <path id="path13" d="M 0,0 V 29.636 H 2.362 V 1.861 H 16.083 V 0 Z" style="fill:#2e2e2e;fill-opacity:1;fill-rule:nonzero;stroke:none" transform="translate(-510.01599999999996,-583.485) matrix(1.3333333,0,0,-1.3333333,966.25733,884.7844)" clip-path="url(#clipPath14)" />
    <path id="path15" d="M 0,0 V -27.757 H -2.338 V 0 h -9.879 V 1.879 H 9.879 L 9.879,0 Z" style="fill:#2e2e2e;fill-opacity:1;fill-rule:nonzero;stroke:none" transform="translate(-510.01599999999996,-583.485) matrix(1.3333333,0,0,-1.3333333,1009.1369,847.77467)" clip-path="url(#clipPath16)" />
    <path id="path17" d="m 0,0 c -3.979,0 -7.254,-1.247 -9.819,-3.74 -2.571,-2.494 -3.854,-5.757 -3.854,-9.796 0,-4.08 1.217,-7.325 3.651,-9.747 2.434,-2.416 5.679,-3.627 9.736,-3.627 4.229,0 7.576,1.199 10.045,3.591 2.464,2.386 3.699,5.721 3.699,9.992 0,4.188 -1.205,7.457 -3.615,9.807 C 7.433,-1.175 4.152,0 0,0 m -0.239,-28.789 c -4.838,0 -8.691,1.39 -11.561,4.176 -2.869,2.785 -4.307,6.401 -4.307,10.851 0,4.724 1.474,8.512 4.427,11.358 2.947,2.845 6.979,4.265 12.086,4.265 4.611,0 8.345,-1.366 11.203,-4.104 2.851,-2.732 4.283,-6.317 4.283,-10.756 0,-4.903 -1.468,-8.763 -4.391,-11.573 -2.929,-2.809 -6.842,-4.217 -11.74,-4.217" style="fill:#2e2e2e;fill-opacity:1;fill-rule:nonzero;stroke:none" transform="translate(-510.01599999999996,-583.485) matrix(1.3333333,0,0,-1.3333333,1054.6891,847.09067)" clip-path="url(#clipPath18)" />
    <path id="path19" d="m 0,0 v -12.694 h 5.894 c 2.607,0 4.677,0.596 6.216,1.777 1.533,1.187 2.303,2.816 2.303,4.88 0,1.885 -0.692,3.364 -2.076,4.432 C 10.953,-0.537 8.972,0 6.395,0 Z m 15.152,-27.757 -4.557,8.679 c -0.943,1.79 -1.879,2.995 -2.816,3.604 -0.943,0.614 -2.118,0.924 -3.532,0.924 H 0 V -27.757 H -2.362 V 1.879 h 9.497 c 3.018,0 5.392,-0.704 7.122,-2.118 1.724,-1.413 2.589,-3.275 2.589,-5.589 0,-2.136 -0.709,-3.92 -2.123,-5.357 -1.42,-1.432 -3.401,-2.357 -5.942,-2.768 v -0.084 c 1.348,-0.465 2.673,-1.891 3.961,-4.277 l 5.083,-9.443 z" style="fill:#2e2e2e;fill-opacity:1;fill-rule:nonzero;stroke:none" transform="translate(-510.01599999999996,-583.485) matrix(1.3333333,0,0,-1.3333333,1094.8644,847.77467)" clip-path="url(#clipPath20)" />
    <path id="path21" d="m 0,0 c -0.179,0.418 -0.322,0.823 -0.43,1.223 -0.113,0.34 -0.232,0.686 -0.357,1.032 H -0.883 C -1.157,1.348 -1.42,0.608 -1.67,0.042 L -7.421,-13.703 H 5.775 Z m 10.499,-24.798 -3.913,9.216 H -8.256 l -3.913,-9.216 H -14.77 L -1.861,4.838 h 2.243 l 12.766,-29.636 z" style="fill:#2e2e2e;fill-opacity:1;fill-rule:nonzero;stroke:none" transform="translate(-510.01599999999996,-583.485) matrix(1.3333333,0,0,-1.3333333,1150.1204,851.71987)" clip-path="url(#clipPath22)" />
    <path id="path23" d="m 0,0 c 13.939,0 29.441,-3.661 40.071,-9.409 1.225,-0.697 1.915,-2.091 1.915,-3.484 v -22.651 c 0,-2.612 -1.563,-4.703 -3.83,-4.703 h -0.697 c -1.915,0 -3.66,1.218 -4.182,3.133 -5.575,18.645 -16.726,29.272 -35.023,29.272 -17.072,0 -26.484,-7.667 -26.484,-19.339 0,-32.059 77.537,-23.348 77.537,-66.21 0,-20.732 -19.514,-34.15 -49.831,-34.15 -17.251,0 -34.499,3.661 -45.302,9.409 -1.394,0.697 -2.091,2.091 -2.091,3.485 v 22.65 c 0,2.612 1.743,4.703 4.009,4.703 h 0.697 c 1.915,0 3.485,-1.218 4.006,-3.133 5.752,-18.645 18.642,-29.272 38.681,-29.272 16.378,0 31.711,4.879 31.711,21.081 0,32.06 -77.537,23.348 -77.537,66.21 C -46.35,-12.721 -28.23,0 0,0" style="fill:#2e2e2e;fill-opacity:1;fill-rule:nonzero;stroke:none" transform="translate(-510.01599999999996,-583.485) matrix(1.3333333,0,0,-1.3333333,583.90493,593.48533)" clip-path="url(#clipPath24)" />
    <path id="path25" d="m 0,0 h 8.715 c 2.612,0 4.703,-2.091 4.703,-4.703 v -77.712 c 0,-2.612 -2.091,-4.703 -4.703,-4.703 H 0 c -2.612,0 -4.703,2.091 -4.703,4.703 V -4.703 C -4.703,-2.091 -2.612,0 0,0 m -5.224,20.036 c 0,5.751 3.83,9.584 9.582,9.584 5.751,0 9.581,-3.833 9.581,-9.584 0,-5.749 -3.83,-9.582 -9.581,-9.582 -5.752,0 -9.582,3.833 -9.582,9.582" style="fill:#2e2e2e;fill-opacity:1;fill-rule:nonzero;stroke:none" transform="translate(-510.01599999999996,-583.485) matrix(1.3333333,0,0,-1.3333333,676.84827,643.66533)" clip-path="url(#clipPath26)" />
    <path id="path27" d="m 0,0 h 8.715 c 2.612,0 4.703,-2.091 4.703,-4.703 v -22.999 c 5.751,15.333 15.508,30.49 33.277,30.49 17.424,0 27.357,-11.5 27.357,-31.363 v -53.84 c 0,-2.612 -2.091,-4.703 -4.703,-4.703 h -8.715 c -2.612,0 -4.703,2.091 -4.703,4.703 v 56.976 c 0,10.455 -4.702,17.251 -14.114,17.251 -15.509,0 -25.09,-25.09 -28.399,-43.734 v -30.493 c 0,-2.612 -2.091,-4.703 -4.703,-4.703 H 0 c -2.612,0 -4.703,2.091 -4.703,4.703 V -4.703 C -4.703,-2.091 -2.612,0 0,0" style="fill:#2e2e2e;fill-opacity:1;fill-rule:nonzero;stroke:none" transform="translate(-510.01599999999996,-583.485) matrix(1.3333333,0,0,-1.3333333,728.89547,643.66533)" clip-path="url(#clipPath28)" />
    <path id="path29" d="M 0,0 C -13.594,0 -23.351,-14.636 -24.041,-32.408 H 19.69 C 21.254,-12.545 15.854,0 0,0 m 58.198,4.182 h 8.709 c 2.612,0 4.702,-2.091 4.702,-4.703 V -23.52 c 5.752,15.333 15.509,30.489 33.278,30.489 6.448,0 11.503,-1.045 15.163,-2.787 1.394,-0.521 2.091,-2.091 2.091,-3.485 v -12.369 c 0,-2.615 -1.57,-4.706 -3.836,-4.706 h -1.218 c -1.57,0 -3.133,1.045 -4.006,2.96 -2.964,5.752 -7.145,9.412 -13.066,9.412 -14.467,0 -23.872,-21.957 -27.709,-39.902 9.412,-2.611 15.685,-11.151 15.685,-21.953 0,-20.736 -18.297,-35.544 -51.75,-35.544 -37.459,0 -79.106,17.947 -79.106,62.028 0,28.226 17.599,46.346 42.865,46.346 27.357,0 41.471,-19.514 38.332,-42.689 -0.352,-2.263 -2.267,-3.657 -4.358,-3.657 h -57.846 c 2.788,-37.635 36.241,-53.317 67.083,-53.317 25.435,0 37.81,11.151 37.81,26.833 0,6.969 -3.836,12.717 -9.412,14.808 v -27.181 c 0,-2.612 -2.09,-4.702 -4.702,-4.702 h -8.709 c -2.618,0 -4.709,2.09 -4.709,4.702 v 77.713 c 0,2.612 2.091,4.703 4.709,4.703" style="fill:#2e2e2e;fill-opacity:1;fill-rule:nonzero;stroke:none" transform="translate(-510.01599999999996,-583.485) matrix(1.3333333,0,0,-1.3333333,902.22427,649.24093)" clip-path="url(#clipPath30)" />
    <path id="path31" d="m 0,0 c 15.509,0 25.09,25.09 28.399,43.735 v 9.233 c 0,12.721 -8.709,21.781 -19.684,21.781 -15.86,0 -25.793,-18.993 -25.793,-42.862 C -17.078,12.545 -11.503,0 0,0 m 11.327,-45.823 c -11.848,0 -21.26,2.44 -27.181,4.358 -2.091,0.521 -3.309,2.263 -2.964,4.527 0.346,2.091 2.612,3.139 5.576,2.443 5.576,-1.222 10.975,-2.267 18.121,-2.267 14.284,0 23.52,9.933 23.52,25.09 V 19.514 C 22.654,4.182 12.897,-10.975 -4.879,-10.975 c -19.69,0 -31.01,17.248 -31.01,41.119 0,28.227 17.593,51.574 44.604,51.574 19.684,0 37.804,-9.581 37.804,-25.962 v -67.428 c 0,-20.733 -13.763,-34.151 -35.192,-34.151" style="fill:#2e2e2e;fill-opacity:1;fill-rule:nonzero;stroke:none" transform="translate(-510.01599999999996,-583.485) matrix(1.3333333,0,0,-1.3333333,1121.1039,748.90627)" clip-path="url(#clipPath32)" />
    <path id="path33" d="m 0,0 h 8.715 c 2.612,0 4.703,-2.091 4.703,-4.703 v -77.712 c 0,-2.612 -2.091,-4.703 -4.703,-4.703 H 0 c -2.612,0 -4.703,2.091 -4.703,4.703 V -4.703 C -4.703,-2.091 -2.612,0 0,0 m -5.224,20.036 c 0,5.751 3.83,9.584 9.582,9.584 5.751,0 9.581,-3.833 9.581,-9.584 0,-5.749 -3.83,-9.582 -9.581,-9.582 -5.752,0 -9.582,3.833 -9.582,9.582" style="fill:#2e2e2e;fill-opacity:1;fill-rule:nonzero;stroke:none" transform="translate(-510.01599999999996,-583.485) matrix(1.3333333,0,0,-1.3333333,1217.304,643.66533)" clip-path="url(#clipPath34)" />
    <path id="path35" d="m 0,0 c 15.509,0 25.09,25.09 28.399,43.735 v 9.233 c 0,12.721 -8.709,21.781 -19.684,21.781 -15.86,0 -25.793,-18.993 -25.793,-42.862 C -17.078,12.545 -11.503,0 0,0 m 41.817,-8.188 h -8.715 c -2.612,0 -4.703,2.091 -4.703,4.703 V 19.514 C 22.654,4.182 12.897,-10.975 -4.879,-10.975 c -19.69,0 -31.01,17.248 -31.01,41.119 0,28.227 17.592,51.574 44.604,51.574 19.684,0 37.804,-9.581 37.804,-25.962 V -3.485 c 0,-2.612 -2.09,-4.703 -4.702,-4.703" style="fill:#2e2e2e;fill-opacity:1;fill-rule:nonzero;stroke:none" transform="translate(-510.01599999999996,-583.485) matrix(1.3333333,0,0,-1.3333333,1303.9684,748.90627)" clip-path="url(#clipPath36)" />
    </g></svg>